<?xml version="1.0" encoding="utf-8"?>
<!-- Generator: Adobe Illustrator 17.0.0, SVG Export Plug-In . SVG Version: 6.00 Build 0)  -->
<!DOCTYPE svg PUBLIC "-//W3C//DTD SVG 1.1//EN" "http://www.w3.org/Graphics/SVG/1.1/DTD/svg11.dtd">
<svg version="1.1" xmlns="http://www.w3.org/2000/svg" xmlns:xlink="http://www.w3.org/1999/xlink" x="0px" y="0px" 
	  viewBox="0 0 96 96" enable-background="new 0 0 96 96" xml:space="preserve">
<g id="Base" display="none">
</g>
<g id="Dibujo">
	<g>
		<path d="M21.001,53c1.104,0,2-0.896,2-2c0-3.859,3.141-7,7-7c0.277,0,0.723,0.068,1.193,0.162V46c0,1.104,0.895,2,2,2s2-0.896,2-2
			v-3.219C36.267,36.528,41.63,32,48.001,32c6.37,0,11.733,4.528,12.807,10.782V46c0,1.104,0.896,2,2,2s2-0.896,2-2v-1.838
			C65.278,44.068,65.724,44,66.001,44c3.859,0,7,3.141,7,7c0,1.104,0.895,2,2,2c1.104,0,2-0.896,2-2
			c0-3.607-1.754-6.806-4.445-8.813C73.501,40.272,74,38.167,74,36c0-7.72-6.28-14-14-14c-4.601,0-8.895,2.281-11.496,6.021
			C48.336,28.016,48.17,28,48.001,28c-7.664,0-14.219,5.012-16.312,12.184C31.113,40.079,30.508,40,30.001,40
			c-6.065,0-11,4.935-11,11C19.001,52.104,19.896,53,21.001,53z M60,26c5.514,0,10,4.486,10,10c0,1.549-0.36,3.051-1.035,4.417
			C68.02,40.152,67.029,40,66.001,40c-0.508,0-1.112,0.079-1.689,0.184c-1.608-5.511-5.855-9.735-11.211-11.401
			C54.939,27.03,57.397,26,60,26z"/>
		<path d="M60,18c1.104,0,2-0.896,2-2v-4c0-1.104-0.896-2-2-2c-1.105,0-2,0.896-2,2v4C58,17.104,58.895,18,60,18z"/>
		<path d="M84,34h-4c-1.105,0-2,0.896-2,2s0.895,2,2,2h4c1.104,0,2-0.896,2-2S85.104,34,84,34z"/>
		<path d="M74.143,23.857c0.512,0,1.023-0.195,1.414-0.586l2.828-2.828c0.781-0.781,0.781-2.047,0-2.828
			c-0.781-0.781-2.047-0.781-2.828,0l-2.828,2.828c-0.781,0.781-0.781,2.047,0,2.828C73.119,23.662,73.631,23.857,74.143,23.857z"/>
		<path d="M44.444,23.271c0.391,0.391,0.902,0.586,1.414,0.586s1.023-0.195,1.414-0.586c0.781-0.781,0.781-2.047,0-2.828
			l-2.828-2.828c-0.781-0.781-2.047-0.781-2.828,0c-0.781,0.781-0.781,2.047,0,2.828L44.444,23.271z"/>
		<path d="M78.001,57h-36c-1.105,0-2,0.896-2,2s0.895,2,2,2h36c1.104,0,2-0.896,2-2S79.105,57,78.001,57z"/>
		<path d="M75.001,68c1.104,0,2-0.896,2-2s-0.896-2-2-2h-27c-1.105,0-2,0.896-2,2s0.895,2,2,2H75.001z"/>
		<path d="M78.001,71h-24c-1.105,0-2,0.896-2,2s0.895,2,2,2h24c1.104,0,2-0.896,2-2S79.105,71,78.001,71z"/>
		<path d="M18.001,61h18c1.104,0,2-0.896,2-2s-0.896-2-2-2h-18c-1.105,0-2,0.896-2,2S16.896,61,18.001,61z"/>
		<path d="M19.001,66c0,1.104,0.895,2,2,2h21c1.104,0,2-0.896,2-2s-0.896-2-2-2h-21C19.896,64,19.001,64.896,19.001,66z"/>
		<path d="M48.001,71h-30c-1.105,0-2,0.896-2,2s0.895,2,2,2h30c1.104,0,2-0.896,2-2S49.105,71,48.001,71z"/>
	</g>
</g>
</svg>
