<?xml version="1.0" encoding="utf-8"?>
<!-- Generator: Adobe Illustrator 17.0.0, SVG Export Plug-In . SVG Version: 6.00 Build 0)  -->
<!DOCTYPE svg PUBLIC "-//W3C//DTD SVG 1.1//EN" "http://www.w3.org/Graphics/SVG/1.1/DTD/svg11.dtd">
<svg version="1.1" xmlns="http://www.w3.org/2000/svg" xmlns:xlink="http://www.w3.org/1999/xlink" x="0px" y="0px" 
	  viewBox="0 0 96 96" enable-background="new 0 0 96 96" xml:space="preserve">
<g id="Base" display="none">
</g>
<g id="Dibujo">
	<path d="M60,46c-5.514,0-10-4.486-10-10c0-1.104-0.896-2-2-2c-7.72,0-14,6.28-14,14s6.28,14,14,14c7.72,0,14-6.28,14-14
		C62,46.896,61.104,46,60,46z M48,58c-5.514,0-10-4.486-10-10c0-4.888,3.525-8.969,8.168-9.832
		c0.934,5.986,5.677,10.729,11.664,11.664C56.969,54.475,52.889,58,48,58z"/>
</g>
</svg>
