<?xml version="1.0" encoding="utf-8"?>
<!-- Generator: Adobe Illustrator 17.0.0, SVG Export Plug-In . SVG Version: 6.00 Build 0)  -->
<!DOCTYPE svg PUBLIC "-//W3C//DTD SVG 1.1//EN" "http://www.w3.org/Graphics/SVG/1.1/DTD/svg11.dtd">
<svg version="1.1" xmlns="http://www.w3.org/2000/svg" xmlns:xlink="http://www.w3.org/1999/xlink" x="0px" y="0px" 
	  viewBox="0 0 96 96" enable-background="new 0 0 96 96" xml:space="preserve">
<g id="Base" display="none">
</g>
<g id="Dibujo">
	<g>
		<path d="M72.555,42.187C73.501,40.271,74,38.166,74,36c0-7.72-6.28-14-14-14c-4.6,0-8.894,2.281-11.496,6.021
			C48.335,28.016,48.17,28,48,28c-7.664,0-14.218,5.012-16.311,12.184C31.113,40.079,30.508,40,30.001,40c-6.065,0-11,4.935-11,11
			s4.935,11,11,11c1.105,0,2-0.896,2-2s-0.895-2-2-2c-3.86,0-7-3.141-7-7s3.14-7,7-7c0.277,0,0.723,0.068,1.193,0.162V46
			c0,1.104,0.896,2,2,2s2-0.896,2-2v-3.221C36.268,36.527,41.631,32,48,32c6.371,0,11.734,4.529,12.807,10.783V46
			c0,1.104,0.896,2,2,2s2-0.896,2-2v-1.837C65.279,44.069,65.726,44,66.001,44c3.859,0,7,3.141,7,7s-3.141,7-7,7
			c-1.104,0-2,0.896-2,2s0.896,2,2,2c6.065,0,11-4.935,11-11C77.001,47.392,75.247,44.194,72.555,42.187z M68.963,40.417
			C68.019,40.152,67.028,40,66.001,40c-0.508,0-1.112,0.079-1.689,0.184c-1.608-5.511-5.854-9.735-11.209-11.401
			C54.939,27.03,57.397,26,60,26c5.514,0,10,4.486,10,10C70,37.548,69.639,39.05,68.963,40.417z"/>
		<path d="M60,18c1.104,0,2-0.896,2-2v-4c0-1.104-0.896-2-2-2s-2,0.896-2,2v4C58,17.104,58.895,18,60,18z"/>
		<path d="M84,34h-4c-1.104,0-2,0.896-2,2s0.896,2,2,2h4c1.104,0,2-0.896,2-2S85.104,34,84,34z"/>
		<path d="M74.142,23.857c0.512,0,1.023-0.195,1.414-0.586l2.828-2.828c0.781-0.781,0.781-2.047,0-2.828
			c-0.781-0.781-2.047-0.781-2.828,0l-2.828,2.828c-0.781,0.781-0.781,2.047,0,2.828C73.119,23.662,73.63,23.857,74.142,23.857z"/>
		<path d="M44.443,23.271c0.39,0.391,0.902,0.586,1.414,0.586c0.512,0,1.024-0.195,1.414-0.586c0.781-0.781,0.781-2.047,0-2.828
			l-2.828-2.828c-0.78-0.781-2.048-0.781-2.828,0c-0.781,0.781-0.781,2.047,0,2.828L44.443,23.271z"/>
		<path d="M39.6,58.8c-0.756-1.006-2.444-1.006-3.2,0C35.602,59.863,33,63.525,33,66c0,2.944,2.056,5,5,5c2.944,0,5-2.056,5-5
			C43,63.525,40.397,59.863,39.6,58.8z"/>
		<path d="M56.399,58.8C55.602,59.863,53,63.525,53,66c0,2.944,2.056,5,5,5c2.944,0,5-2.056,5-5c0-2.475-2.603-6.137-3.4-7.2
			C58.844,57.794,57.155,57.794,56.399,58.8z"/>
		<path d="M46.399,70.8C45.602,71.863,43,75.525,43,78c0,2.944,2.056,5,5,5s5-2.056,5-5c0-2.475-2.603-6.137-3.4-7.2
			C48.844,69.794,47.155,69.794,46.399,70.8z"/>
	</g>
</g>
</svg>
