<?xml version="1.0" encoding="utf-8"?>
<!-- Generator: Adobe Illustrator 17.0.0, SVG Export Plug-In . SVG Version: 6.00 Build 0)  -->
<!DOCTYPE svg PUBLIC "-//W3C//DTD SVG 1.1//EN" "http://www.w3.org/Graphics/SVG/1.1/DTD/svg11.dtd">
<svg version="1.1" xmlns="http://www.w3.org/2000/svg" xmlns:xlink="http://www.w3.org/1999/xlink" x="0px" y="0px" 
	  viewBox="0 0 96 96" enable-background="new 0 0 96 96" xml:space="preserve">
<g id="Base" display="none">
</g>
<g id="Dibujo">
	<g>
		<path d="M69.24,40.488C72.173,37.886,74,34.094,74,30c0-1.104-0.896-2-2-2c-5.514,0-10-4.486-10-10c0-1.104-0.896-2-2-2
			c-7.078,0-12.931,5.284-13.857,12.111c-6.848,0.737-12.533,5.488-14.454,12.072C31.112,40.079,30.507,40,30,40
			c-6.065,0-11,4.935-11,11s4.935,11,11,11c1.104,0,2-0.896,2-2s-0.896-2-2-2c-3.859,0-7-3.141-7-7s3.141-7,7-7
			c0.277,0,0.724,0.068,1.194,0.162V46c0,1.104,0.896,2,2,2c1.104,0,2-0.896,2-2v-3.224C36.269,36.525,41.631,32,48,32
			c6.372,0,11.736,4.53,12.808,10.787V46c0,1.104,0.896,2,2,2s2-0.896,2-2v-1.838C65.277,44.068,65.723,44,66,44
			c3.859,0,7,3.141,7,7s-3.141,7-7,7c-1.104,0-2,0.896-2,2s0.896,2,2,2c6.065,0,11-4.935,11-11
			C77,46.063,73.728,41.875,69.24,40.488z M50.174,28.15c0.759-4.039,3.952-7.23,7.994-7.982c0.934,5.985,5.675,10.728,11.66,11.664
			c-0.615,3.246-2.84,6.006-5.862,7.326C61.811,33.21,56.519,28.952,50.174,28.15z"/>
		<path d="M39.6,58.8c-0.754-1.006-2.445-1.006-3.199,0C35.602,59.863,33,63.525,33,66c0,2.944,2.056,5,5,5c2.944,0,5-2.056,5-5
			C43,63.525,40.397,59.863,39.6,58.8z"/>
		<path d="M56.4,58.8C55.602,59.863,53,63.525,53,66c0,2.944,2.056,5,5,5c2.944,0,5-2.056,5-5c0-2.475-2.603-6.137-3.4-7.2
			C58.846,57.794,57.154,57.794,56.4,58.8z"/>
		<path d="M46.4,70.8C45.602,71.863,43,75.525,43,78c0,2.944,2.056,5,5,5c2.944,0,5-2.056,5-5c0-2.475-2.603-6.137-3.4-7.2
			C48.846,69.794,47.154,69.794,46.4,70.8z"/>
	</g>
</g>
</svg>
