<?xml version="1.0" encoding="utf-8"?>
<!-- Generator: Adobe Illustrator 17.0.0, SVG Export Plug-In . SVG Version: 6.00 Build 0)  -->
<!DOCTYPE svg PUBLIC "-//W3C//DTD SVG 1.1//EN" "http://www.w3.org/Graphics/SVG/1.1/DTD/svg11.dtd">
<svg version="1.1" xmlns="http://www.w3.org/2000/svg" xmlns:xlink="http://www.w3.org/1999/xlink" x="0px" y="0px" 
	  viewBox="0 0 96 96" enable-background="new 0 0 96 96" xml:space="preserve">
<g id="Base" display="none">
</g>
<g id="Dibujo">
	<g>
		<path d="M71.83,42.343c-0.781,0.781-0.781,2.047-0.001,2.828c0.755,0.756,1.17,1.76,1.17,2.829c0,2.206-1.794,4-4,4l-21-0.001
			c-1.105,0-2,0.896-2,2s0.895,2,2,2l21,0.001c4.411,0,8-3.589,8-8c0-2.137-0.831-4.146-2.34-5.656
			C73.878,41.563,72.611,41.563,71.83,42.343z"/>
		<path d="M65.999,58l-30.001-0.001L29.999,58c-3.859,0-7-3.141-7-7s3.141-7,7-7c0.277,0,0.724,0.068,1.194,0.162V46
			c0,1.104,0.896,2,2,2s2-0.896,2-2v-3.224C36.268,36.525,41.63,32,47.999,32c7.168,0,13,5.832,13,13v1c0,1.104,0.895,2,2,2
			c1.104,0,2-0.896,2-2v-1c0-0.641-0.043-1.271-0.112-1.894C70.26,41.09,73.999,35.855,73.999,30c0-1.104-0.896-2-2-2
			c-5.514,0-10-4.486-10-10c0-1.104-0.896-2-2-2c-7.078,0-12.931,5.284-13.857,12.111c-6.848,0.737-12.533,5.488-14.454,12.072
			C31.111,40.079,30.506,40,29.999,40c-6.065,0-11,4.935-11,11s4.935,11,11,11l5.999-0.001L65.999,62c3.859,0,7,3.141,7,7
			c0,1.104,0.895,2,2,2c1.104,0,2-0.896,2-2C76.999,62.935,72.064,58,65.999,58z M58.167,20.168
			c0.934,5.985,5.675,10.728,11.66,11.664c-0.616,3.253-2.85,6.019-5.881,7.335c-2.146-5.85-7.408-10.194-13.774-11.013
			C50.929,24.113,54.123,20.92,58.167,20.168z"/>
		<path d="M65.998,64H29.999c-1.105,0-2,0.896-2,2s0.895,2,2,2h35.999c0.552,0,1,0.448,1,1s-0.448,1-1,1c-1.105,0-2,0.896-2,2
			s0.895,2,2,2c2.757,0,5-2.243,5-5S68.755,64,65.998,64z"/>
		<path d="M79.999,50c-1.105,0-2,0.896-2,2s0.895,2,2,2c0.552,0,1,0.448,1,1s-0.448,1-1,1h-4c-1.105,0-2,0.896-2,2s0.895,2,2,2h4
			c2.757,0,5-2.243,5-5S82.756,50,79.999,50z"/>
	</g>
</g>
</svg>
