<?xml version="1.0" encoding="utf-8"?>
<!-- Generator: Adobe Illustrator 17.0.0, SVG Export Plug-In . SVG Version: 6.00 Build 0)  -->
<!DOCTYPE svg PUBLIC "-//W3C//DTD SVG 1.1//EN" "http://www.w3.org/Graphics/SVG/1.1/DTD/svg11.dtd">
<svg version="1.1" xmlns="http://www.w3.org/2000/svg" xmlns:xlink="http://www.w3.org/1999/xlink" x="0px" y="0px" 
	  viewBox="0 0 96 96" enable-background="new 0 0 96 96" xml:space="preserve">
<g id="Base" display="none">
</g>
<g id="Dibujo">
	<g>
		<path d="M21.001,53c1.104,0,2-0.896,2-2c0-3.859,3.141-7,7-7c0.277,0,0.723,0.068,1.193,0.162V46c0,1.104,0.896,2,2,2s2-0.896,2-2
			v-3.219C36.267,36.528,41.63,32,48.001,32c6.37,0,11.733,4.528,12.807,10.782V46c0,1.104,0.896,2,2,2s2-0.896,2-2v-1.838
			C65.278,44.068,65.724,44,66.001,44c3.859,0,7,3.141,7,7c0,1.104,0.895,2,2,2c1.104,0,2-0.896,2-2
			c0-4.938-3.272-9.125-7.76-10.512c2.933-2.603,4.76-6.395,4.76-10.488c0-1.104-0.896-2-2-2c-5.514,0-10-4.486-10-10
			c0-1.104-0.896-2-2-2c-7.078,0-12.931,5.284-13.857,12.111C39.296,28.849,33.61,33.6,31.689,40.184
			C31.113,40.079,30.508,40,30.001,40c-6.065,0-11,4.935-11,11C19.001,52.104,19.896,53,21.001,53z M58.169,20.168
			c0.934,5.985,5.675,10.728,11.66,11.664c-0.615,3.246-2.84,6.006-5.862,7.326C61.812,33.21,56.52,28.952,50.175,28.15
			C50.934,24.111,54.127,20.92,58.169,20.168z"/>
		<path d="M40.001,59c0,1.104,0.895,2,2,2h36c1.104,0,2-0.896,2-2s-0.896-2-2-2h-36C40.896,57,40.001,57.896,40.001,59z"/>
		<path d="M48.001,64c-1.105,0-2,0.896-2,2s0.895,2,2,2h27c1.104,0,2-0.896,2-2s-0.896-2-2-2H48.001z"/>
		<path d="M78.001,71h-24c-1.105,0-2,0.896-2,2s0.895,2,2,2h24c1.104,0,2-0.896,2-2S79.105,71,78.001,71z"/>
		<path d="M18.001,61h18c1.104,0,2-0.896,2-2s-0.896-2-2-2h-18c-1.105,0-2,0.896-2,2S16.896,61,18.001,61z"/>
		<path d="M21.001,64c-1.105,0-2,0.896-2,2s0.895,2,2,2h21c1.104,0,2-0.896,2-2s-0.896-2-2-2H21.001z"/>
		<path d="M48.001,71h-30c-1.105,0-2,0.896-2,2s0.895,2,2,2h30c1.104,0,2-0.896,2-2S49.105,71,48.001,71z"/>
	</g>
</g>
</svg>
