<?xml version="1.0" encoding="utf-8"?>
<!-- Generator: Adobe Illustrator 17.0.0, SVG Export Plug-In . SVG Version: 6.00 Build 0)  -->
<!DOCTYPE svg PUBLIC "-//W3C//DTD SVG 1.1//EN" "http://www.w3.org/Graphics/SVG/1.1/DTD/svg11.dtd">
<svg version="1.1" xmlns="http://www.w3.org/2000/svg" xmlns:xlink="http://www.w3.org/1999/xlink" x="0px" y="0px" 
	  viewBox="0 0 96 96" enable-background="new 0 0 96 96" xml:space="preserve">
<g id="Base" display="none">
</g>
<g id="Dibujo">
	<g>
		<path d="M55.586,58.586L50,64.172V51c0-1.104-0.896-2-2-2c-1.105,0-2,0.896-2,2v13.172l-5.586-5.586
			c-0.781-0.781-2.047-0.781-2.828,0c-0.781,0.781-0.781,2.047,0,2.828l8.999,8.999c0.093,0.093,0.196,0.177,0.307,0.251
			c0.047,0.031,0.099,0.053,0.148,0.08c0.064,0.035,0.127,0.074,0.195,0.104c0.065,0.026,0.133,0.042,0.2,0.062
			c0.058,0.017,0.113,0.039,0.173,0.052C47.737,70.986,47.869,71,48,71c0.131,0,0.263-0.014,0.392-0.039
			c0.06-0.013,0.115-0.035,0.173-0.052c0.067-0.02,0.135-0.035,0.2-0.062c0.068-0.029,0.131-0.068,0.195-0.104
			c0.05-0.027,0.101-0.049,0.148-0.08c0.11-0.074,0.214-0.158,0.307-0.251l8.999-8.999c0.781-0.781,0.781-2.047,0-2.828
			C57.633,57.805,56.367,57.805,55.586,58.586z"/>
		<path d="M66,40c-0.508,0-1.112,0.079-1.689,0.184C62.218,33.012,55.663,28,48,28c-7.664,0-14.219,5.012-16.312,12.184
			C31.112,40.079,30.507,40,30,40c-6.065,0-11,4.935-11,11s4.935,11,11.001,11l2-0.001c1.104-0.001,2-0.896,1.999-2.001
			c-0.001-1.104-0.896-1.999-2-1.999h-0.001L30,58c-3.859,0-7-3.141-7-7s3.141-7,7-7c0.277,0,0.724,0.068,1.194,0.162V46
			c0,1.104,0.895,2,2,2s2-0.896,2-2v-3.224C36.269,36.525,41.631,32,48,32c6.372,0,11.736,4.53,12.808,10.787V46
			c0,1.104,0.896,2,2,2s2-0.896,2-2v-1.838C65.277,44.068,65.723,44,66,44c3.859,0,7,3.141,7,7s-3.141,7-6.999,7l-2-0.001H64
			c-1.105,0-1.999,0.895-2,1.999c-0.001,1.104,0.894,2,1.999,2.001L66,62c6.065,0,11-4.935,11-11S72.065,40,66,40z"/>
	</g>
</g>
</svg>
