<?xml version="1.0" encoding="utf-8"?>
<!-- Generator: Adobe Illustrator 17.0.0, SVG Export Plug-In . SVG Version: 6.00 Build 0)  -->
<!DOCTYPE svg PUBLIC "-//W3C//DTD SVG 1.1//EN" "http://www.w3.org/Graphics/SVG/1.1/DTD/svg11.dtd">
<svg version="1.1" xmlns="http://www.w3.org/2000/svg" xmlns:xlink="http://www.w3.org/1999/xlink" x="0px" y="0px" 
	  viewBox="0 0 96 96" enable-background="new 0 0 96 96" xml:space="preserve">
<g id="Base" display="none">
</g>
<g id="Dibujo">
	<path d="M35.271,38.444l-2.828-2.829c-0.781-0.781-2.047-0.781-2.828,0c-0.781,0.781-0.781,2.047,0,2.829l2.828,2.829
		c0.391,0.391,0.902,0.586,1.414,0.586s1.023-0.195,1.414-0.585C36.053,40.491,36.053,39.225,35.271,38.444z M48,36
		c1.104,0,2-0.896,2-2v-4c0-1.104-0.896-2-2-2c-1.105,0-2,0.896-2,2v4C46,35.104,46.895,36,48,36z M28,52h-4c-1.104,0-2,0.896-2,2
		s0.896,2,2,2h4c1.104,0,2-0.896,2-2S29.104,52,28,52z M72,52h-4c-1.104,0-2,0.896-2,2s0.896,2,2,2h4c1.104,0,2-0.896,2-2
		S73.104,52,72,52z M66.385,35.615c-0.781-0.78-2.047-0.781-2.828,0l-2.828,2.829c-0.781,0.781-0.781,2.047,0,2.829
		c0.391,0.39,0.902,0.585,1.414,0.585s1.023-0.195,1.414-0.586l2.828-2.829C67.166,37.662,67.166,36.396,66.385,35.615z M48,40
		c-7.72,0-14,6.28-14,14c0,2.45,0.652,4.871,1.888,7.002C36.245,61.62,36.904,62,37.618,62h20.764c0.714,0,1.373-0.38,1.73-0.998
		C61.348,58.871,62,56.45,62,54C62,46.28,55.72,40,48,40z M57.157,58H38.843C38.289,56.739,38,55.375,38,54c0-5.514,4.486-10,10-10
		s10,4.486,10,10C58,55.375,57.711,56.739,57.157,58z"/>
</g>
</svg>
