<?xml version="1.0" encoding="utf-8"?>
<!-- Generator: Adobe Illustrator 17.0.0, SVG Export Plug-In . SVG Version: 6.00 Build 0)  -->
<!DOCTYPE svg PUBLIC "-//W3C//DTD SVG 1.1//EN" "http://www.w3.org/Graphics/SVG/1.1/DTD/svg11.dtd">
<svg version="1.1" xmlns="http://www.w3.org/2000/svg" xmlns:xlink="http://www.w3.org/1999/xlink" x="0px" y="0px" 
	  viewBox="0 0 96 96" enable-background="new 0 0 96 96" xml:space="preserve">
<g id="Base" display="none">
</g>
<g id="Dibujo">
	<g>
		<path d="M60,18c1.104,0,2-0.896,2-2v-4c0-1.104-0.896-2-2-2c-1.105,0-2,0.896-2,2v4C58,17.104,58.895,18,60,18z"/>
		<path d="M84,34h-4c-1.105,0-2,0.896-2,2s0.895,2,2,2h4c1.104,0,2-0.896,2-2S85.104,34,84,34z"/>
		<path d="M74.143,23.857c0.512,0,1.023-0.195,1.414-0.586l2.828-2.828c0.781-0.781,0.781-2.047,0-2.828
			c-0.781-0.781-2.047-0.781-2.828,0l-2.828,2.828c-0.781,0.781-0.781,2.047,0,2.828C73.119,23.662,73.631,23.857,74.143,23.857z"/>
		<path d="M44.443,23.271c0.391,0.391,0.902,0.586,1.414,0.586s1.024-0.195,1.414-0.586c0.781-0.781,0.781-2.047,0-2.828
			l-2.828-2.828c-0.781-0.781-2.047-0.781-2.828,0c-0.781,0.781-0.781,2.047,0,2.828L44.443,23.271z"/>
		<path d="M30.001,62H32c1.104,0,2-0.896,2-2s-0.896-2-2-2h-1.999c-3.859,0-7-3.141-7-7s3.141-7,7-7
			c0.277,0,0.723,0.068,1.193,0.162V46c0,1.104,0.896,2,2,2s2-0.896,2-2v-3.219C36.267,36.528,41.63,32,48.001,32
			c6.372,0,11.736,4.53,12.807,10.786V46c0,1.104,0.896,2,2,2s2-0.896,2-2v-1.837C65.279,44.069,65.727,44,66.001,44
			c3.859,0,7,3.141,7,7s-3.141,7-7,7H64c-1.105,0-2,0.896-2,2s0.895,2,2,2h2.001c6.065,0,11-4.935,11-11
			c0-3.608-1.754-6.806-4.445-8.813C73.501,40.271,74,38.166,74,36c0-7.72-6.28-14-14-14c-4.601,0-8.895,2.281-11.496,6.021
			C48.336,28.016,48.17,28,48.001,28c-7.664,0-14.219,5.012-16.312,12.184C31.113,40.079,30.508,40,30.001,40
			c-6.066,0-11,4.935-11,11S23.935,62,30.001,62z M60,26c5.514,0,10,4.486,10,10c0,1.549-0.36,3.05-1.036,4.417
			C68.019,40.152,67.028,40,66.001,40c-0.508,0-1.112,0.079-1.69,0.184c-1.608-5.511-5.854-9.735-11.21-11.401
			C54.939,27.031,57.397,26,60,26z"/>
		<path d="M46,48v18c0,1.104,0.895,2,2,2c1.104,0,2-0.896,2-2V48c0-1.104-0.896-2-2-2C46.895,46,46,46.896,46,48z"/>
		<path d="M23,67h-2c-1.105,0-2,0.896-2,2v2c0,1.104,0.895,2,2,2h2c1.104,0,2-0.896,2-2v-2C25,67.896,24.104,67,23,67z"/>
		<path d="M49,72h-2c-1.105,0-2,0.896-2,2v2c0,1.104,0.895,2,2,2h2c1.104,0,2-0.896,2-2v-2C51,72.896,50.104,72,49,72z"/>
		<path d="M76,64h-2c-1.105,0-2,0.896-2,2v2c0,1.104,0.895,2,2,2h2c1.104,0,2-0.896,2-2v-2C78,64.896,77.104,64,76,64z"/>
		<path d="M39,52c-1.105,0-2,0.896-2,2v15.074c-1.178-0.683-2.544-1.073-4-1.073h-2c-1.105,0-2,0.896-2,2s0.895,2,2,2h2
			c2.206,0,4,1.794,4,4c0,1.104,0.895,2,2,2c1.104,0,2-0.896,2-2V54C41,52.896,40.104,52,39,52z"/>
		<path d="M66,65c-2.657,0-5.097,0.947-7,2.521V54c0-1.104-0.896-2-2-2c-1.105,0-2,0.896-2,2v22c0,0.001,0,0.001,0,0.001
			c0,1.104,0.895,2,2,2c1.104,0,2-0.896,2-2V76c0-3.859,3.141-7,7-7c1.104,0,2-0.896,2-2S67.104,65,66,65z"/>
	</g>
</g>
</svg>
