<?xml version="1.0" encoding="utf-8"?>
<!-- Generator: Adobe Illustrator 17.0.0, SVG Export Plug-In . SVG Version: 6.00 Build 0)  -->
<!DOCTYPE svg PUBLIC "-//W3C//DTD SVG 1.1//EN" "http://www.w3.org/Graphics/SVG/1.1/DTD/svg11.dtd">
<svg version="1.1" xmlns="http://www.w3.org/2000/svg" xmlns:xlink="http://www.w3.org/1999/xlink" x="0px" y="0px" 
	  viewBox="0 0 96 96" enable-background="new 0 0 96 96" xml:space="preserve">
<g id="Base" display="none">
</g>
<g id="Dibujo">
	<g>
		<path d="M46.481,52.698c-0.663,0.774-6.48,7.723-6.481,13.301c-0.001,2.063,0.712,4,2.006,5.455
			c1.032,1.161,2.911,2.545,5.996,2.546c5.249,0,7.997-4.024,7.998-8c0.001-5.579-5.818-12.527-6.481-13.302
			C48.759,51.812,47.241,51.812,46.481,52.698z M48.002,70L48,72L48.002,70c-1.286,0-2.297-0.405-3.008-1.204
			C44.362,68.085,44,67.066,44,66c0.001-2.607,2.233-6.302,4-8.747c1.768,2.445,4.001,6.14,4,8.746
			C51.999,67.845,50.952,70,48.002,70z"/>
		<path d="M69.24,40.488C72.173,37.886,74,34.094,74,30c0-1.104-0.896-2-2-2c-5.514,0-10-4.486-10-10c0-1.104-0.896-2-2-2
			c-7.078,0-12.931,5.284-13.857,12.111c-6.848,0.737-12.533,5.488-14.454,12.072C31.112,40.079,30.507,40,30,40
			c-6.065,0-11,4.935-11,11s4.935,11,11,11l6-0.001c1.104,0,2-0.896,2-2s-0.896-2-2-2L30,58c-3.859,0-7-3.141-7-7s3.141-7,7-7
			c0.277,0,0.724,0.068,1.194,0.162V46c0,1.104,0.896,2,2,2s2-0.896,2-2v-3.224C36.269,36.525,41.631,32,48,32
			c6.372,0,11.736,4.53,12.808,10.787V46c0,1.104,0.896,2,2,2s2-0.896,2-2v-1.838C65.277,44.068,65.723,44,66,44
			c3.859,0,7,3.141,7,7s-3.141,7-7,7l-6-0.001c-1.105,0-2,0.896-2,2s0.895,2,2,2L66,62c6.065,0,11-4.935,11-11
			C77,46.063,73.728,41.875,69.24,40.488z M50.174,28.15c0.759-4.039,3.952-7.23,7.994-7.982c0.934,5.985,5.675,10.728,11.66,11.664
			c-0.615,3.246-2.84,6.006-5.862,7.326C61.811,33.21,56.519,28.952,50.174,28.15z"/>
	</g>
</g>
</svg>
