<?xml version="1.0" encoding="utf-8"?>
<!-- Generator: Adobe Illustrator 17.0.0, SVG Export Plug-In . SVG Version: 6.00 Build 0)  -->
<!DOCTYPE svg PUBLIC "-//W3C//DTD SVG 1.1//EN" "http://www.w3.org/Graphics/SVG/1.1/DTD/svg11.dtd">
<svg version="1.1" xmlns="http://www.w3.org/2000/svg" xmlns:xlink="http://www.w3.org/1999/xlink" x="0px" y="0px" 
	  viewBox="0 0 96 96" enable-background="new 0 0 96 96" xml:space="preserve">
<g id="Base" display="none">
</g>
<g id="Dibujo">
	<path d="M28,58h-4c-1.105,0-2,0.896-2,2s0.895,2,2,2h4c1.104,0,2-0.896,2-2S29.104,58,28,58z M48,42c1.104,0,2-0.896,2-2v-4
		c0-1.104-0.896-2-2-2c-1.105,0-2,0.896-2,2v4C46,41.104,46.895,42,48,42z M35.271,44.444l-2.828-2.829
		c-0.781-0.781-2.047-0.781-2.828,0c-0.781,0.781-0.781,2.047,0,2.829l2.828,2.829c0.391,0.391,0.902,0.586,1.414,0.586
		s1.023-0.195,1.414-0.585C36.053,46.491,36.053,45.225,35.271,44.444z M72,58h-4c-1.105,0-2,0.896-2,2s0.895,2,2,2h4
		c1.104,0,2-0.896,2-2S73.104,58,72,58z M48,46c-7.72,0-14,6.28-14,14c0,1.104,0.895,2,2,2h24c1.104,0,2-0.896,2-2
		C62,52.28,55.72,46,48,46z M38.201,58c0.929-4.559,4.97-8,9.799-8c4.829,0,8.87,3.441,9.799,8H38.201z M66.385,41.615
		c-0.781-0.78-2.047-0.781-2.828,0l-2.828,2.829c-0.781,0.781-0.781,2.047,0,2.829c0.391,0.39,0.902,0.585,1.414,0.585
		s1.023-0.195,1.414-0.586l2.828-2.829C67.166,43.662,67.166,42.396,66.385,41.615z"/>
</g>
</svg>
