<?xml version="1.0" encoding="utf-8"?>
<!-- Generator: Adobe Illustrator 17.0.0, SVG Export Plug-In . SVG Version: 6.00 Build 0)  -->
<!DOCTYPE svg PUBLIC "-//W3C//DTD SVG 1.1//EN" "http://www.w3.org/Graphics/SVG/1.1/DTD/svg11.dtd">
<svg version="1.1" xmlns="http://www.w3.org/2000/svg" xmlns:xlink="http://www.w3.org/1999/xlink" x="0px" y="0px" 
	  viewBox="0 0 96 96" enable-background="new 0 0 96 96" xml:space="preserve">
<g id="Base" display="none">
</g>
<g id="Dibujo">
	<path d="M50,22.085V20c0-1.104-0.896-2-2-2c-1.105,0-2,0.896-2,2v2.085C32.595,23.11,22,34.337,22,48c0,1.104,0.895,2,2,2
		c1.104,0,2-0.896,2-2c0-2.206,1.794-4,4-4c2.206,0,4,1.794,4,4c0,1.104,0.895,2,2,2c1.104,0,2-0.896,2-2c0-2.206,1.794-4,4-4
		c2.206,0,4,1.794,4,4v21c0,2.757,2.243,5,5,5c2.757,0,5-2.243,5-5c0-1.104-0.896-2-2-2c-1.105,0-2,0.896-2,2c0,0.552-0.448,1-1,1
		c-0.552,0-1-0.448-1-1V48c0-2.206,1.794-4,4-4c2.206,0,4,1.794,4,4c0,1.104,0.895,2,2,2c1.104,0,2-0.896,2-2c0-2.206,1.794-4,4-4
		c2.206,0,4,1.794,4,4c0,1.104,0.895,2,2,2c1.104,0,2-0.896,2-2C74,34.337,63.405,23.11,50,22.085z"/>
</g>
</svg>
