<?xml version="1.0" encoding="utf-8"?>
<!-- Generator: Adobe Illustrator 17.0.0, SVG Export Plug-In . SVG Version: 6.00 Build 0)  -->
<!DOCTYPE svg PUBLIC "-//W3C//DTD SVG 1.1//EN" "http://www.w3.org/Graphics/SVG/1.1/DTD/svg11.dtd">
<svg version="1.1" xmlns="http://www.w3.org/2000/svg" xmlns:xlink="http://www.w3.org/1999/xlink" x="0px" y="0px" 
	  viewBox="0 0 96 96" enable-background="new 0 0 96 96" xml:space="preserve">
<g id="Base" display="none">
</g>
<g id="Dibujo">
	<g>
		<path d="M30.001,62l2-0.001c1.104-0.001,2-0.896,1.999-2.001c0-1.104-0.896-1.999-2-1.999c0,0,0,0-0.001,0L30,58
			c-3.86,0-7-3.141-7-7s3.14-7,7-7c0.277,0,0.723,0.068,1.194,0.162V46c0,1.104,0.896,2,2,2s2-0.896,2-2v-3.226
			C36.27,36.524,41.632,32,48,32c6.371,0,11.735,4.529,12.808,10.785V46c0,1.104,0.896,2,2,2c1.105,0,2-0.896,2-2v-1.838
			C65.277,44.068,65.723,44,66,44c3.859,0,7,3.141,7,7s-3.141,7-6.999,7l-2-0.001H64c-1.104,0-2,0.895-2,1.999
			c0,1.104,0.895,2,1.999,2.001L66,62c6.065,0,11-4.935,11-11c0-4.938-3.271-9.125-7.76-10.512C72.173,37.886,74,34.094,74,30
			c0-1.104-0.896-2-2-2c-5.514,0-10-4.486-10-10c0-1.104-0.896-2-2-2c-7.078,0-12.93,5.284-13.857,12.111
			C39.295,28.849,33.61,33.6,31.688,40.184C31.112,40.079,30.507,40,30,40c-6.065,0-11,4.935-11,11S23.935,62,30.001,62z
			 M58.167,20.168c0.935,5.985,5.676,10.728,11.661,11.664c-0.615,3.246-2.84,6.006-5.862,7.326
			c-2.155-5.948-7.448-10.205-13.792-11.008C50.933,24.111,54.125,20.92,58.167,20.168z"/>
		<path d="M46,48v18c0,1.104,0.896,2,2,2s2-0.896,2-2V48c0-1.104-0.896-2-2-2S46,46.896,46,48z"/>
		<path d="M23,67h-2c-1.104,0-2,0.896-2,2v2c0,1.104,0.896,2,2,2h2c1.104,0,2-0.896,2-2v-2C25,67.896,24.104,67,23,67z"/>
		<path d="M49,72h-2c-1.104,0-2,0.896-2,2v2c0,1.104,0.896,2,2,2h2c1.104,0,2-0.896,2-2v-2C51,72.896,50.104,72,49,72z"/>
		<path d="M76,64h-2c-1.104,0-2,0.896-2,2v2c0,1.104,0.896,2,2,2h2c1.104,0,2-0.896,2-2v-2C78,64.896,77.104,64,76,64z"/>
		<path d="M39,52c-1.104,0-2,0.896-2,2v15.074c-1.177-0.683-2.544-1.073-4-1.073h-2c-1.104,0-2,0.896-2,2s0.896,2,2,2h2
			c2.206,0,4,1.794,4,4c0,1.104,0.896,2,2,2c1.104,0,2-0.896,2-2V54C41,52.896,40.104,52,39,52z"/>
		<path d="M66,65c-2.657,0-5.097,0.947-7,2.521V54c0-1.104-0.896-2-2-2c-1.104,0-2,0.896-2,2v22c0,0.001,0,0.001,0,0.001
			c0,1.104,0.896,2,2,2c1.104,0,2-0.896,2-2V76c0-3.859,3.14-7,7-7c1.104,0,2-0.896,2-2S67.104,65,66,65z"/>
	</g>
</g>
</svg>
