<?xml version="1.0" encoding="utf-8"?>
<!-- Generator: Adobe Illustrator 17.0.0, SVG Export Plug-In . SVG Version: 6.00 Build 0)  -->
<!DOCTYPE svg PUBLIC "-//W3C//DTD SVG 1.1//EN" "http://www.w3.org/Graphics/SVG/1.1/DTD/svg11.dtd">
<svg version="1.1" xmlns="http://www.w3.org/2000/svg" xmlns:xlink="http://www.w3.org/1999/xlink" x="0px" y="0px" 
	  viewBox="0 0 96 96" enable-background="new 0 0 96 96" xml:space="preserve">
<g id="Base" display="none">
</g>
<g id="Dibujo">
	<g>
		<path d="M60,18c1.104,0,2-0.896,2-2v-4c0-1.104-0.896-2-2-2c-1.105,0-2,0.896-2,2v4C58,17.104,58.895,18,60,18z"/>
		<path d="M84,34h-4c-1.105,0-2,0.896-2,2s0.895,2,2,2h4c1.104,0,2-0.896,2-2S85.104,34,84,34z"/>
		<path d="M74.143,23.857c0.512,0,1.023-0.195,1.414-0.586l2.828-2.828c0.781-0.781,0.781-2.047,0-2.828
			c-0.781-0.781-2.047-0.781-2.828,0l-2.828,2.828c-0.781,0.781-0.781,2.047,0,2.828C73.119,23.662,73.631,23.857,74.143,23.857z"/>
		<path d="M44.443,23.271c0.391,0.391,0.902,0.586,1.414,0.586s1.023-0.195,1.414-0.586c0.781-0.781,0.781-2.047,0-2.828
			l-2.828-2.828c-0.781-0.781-2.047-0.781-2.828,0c-0.781,0.781-0.781,2.047,0,2.828L44.443,23.271z"/>
		<path d="M66,58l-30.001-0.001L30,58c-3.859,0-7-3.141-7-7s3.141-7,7-7c0.277,0,0.724,0.068,1.194,0.162V46c0,1.104,0.895,2,2,2
			s2-0.896,2-2v-3.224C36.269,36.525,41.631,32,48,32c7.168,0,13,5.832,13,13v1c0,1.104,0.895,2,2,2c1.104,0,2-0.896,2-2v-1
			c0-7.598-5.011-14.045-11.9-16.216C54.937,27.031,57.396,26,60,26c5.514,0,10,4.486,10,10c0,1.389-0.292,2.752-0.843,4.009
			C69.104,40.008,69.053,40,69,40c-1.105,0-2,0.896-2,2s0.895,2,2,2c1.222,0,2.36,0.548,3.124,1.503C72.697,46.219,73,47.082,73,48
			c0,2.206-1.794,4-4,4H48c-1.105,0-2,0.896-2,2s0.895,2,2,2h21c4.411,0,8-3.589,8-8c0-1.81-0.623-3.584-1.752-4.996
			c-0.625-0.781-1.38-1.417-2.215-1.906C73.664,39.482,74,37.755,74,36c0-7.72-6.28-14-14-14c-4.603,0-8.898,2.283-11.5,6.025
			C48.333,28.021,48.169,28,48,28c-7.664,0-14.219,5.012-16.312,12.184C31.112,40.079,30.507,40,30,40c-6.065,0-11,4.935-11,11
			s4.935,11,11,11l5.999-0.001L66,62c3.859,0,7,3.141,7,7c0,1.104,0.895,2,2,2c1.104,0,2-0.896,2-2C77,62.935,72.065,58,66,58z"/>
		<path d="M65.999,64H30c-1.105,0-2,0.896-2,2s0.895,2,2,2h35.999c0.552,0,1,0.448,1,1s-0.448,1-1,1c-1.105,0-2,0.896-2,2
			s0.895,2,2,2c2.757,0,5-2.243,5-5S68.756,64,65.999,64z"/>
		<path d="M80,50c-1.105,0-2,0.896-2,2s0.895,2,2,2c0.552,0,1,0.448,1,1s-0.448,1-1,1h-4c-1.105,0-2,0.896-2,2s0.895,2,2,2h4
			c2.757,0,5-2.243,5-5S82.757,50,80,50z"/>
	</g>
</g>
</svg>
