<?xml version="1.0" encoding="utf-8"?>
<!-- Generator: Adobe Illustrator 17.0.0, SVG Export Plug-In . SVG Version: 6.00 Build 0)  -->
<!DOCTYPE svg PUBLIC "-//W3C//DTD SVG 1.1//EN" "http://www.w3.org/Graphics/SVG/1.1/DTD/svg11.dtd">
<svg version="1.1" xmlns="http://www.w3.org/2000/svg" xmlns:xlink="http://www.w3.org/1999/xlink" x="0px" y="0px" 
	  viewBox="0 0 96 96" enable-background="new 0 0 96 96" xml:space="preserve">
<g id="Base" display="none">
</g>
<g id="Dibujo">
	<g>
		<path d="M59.999,18c1.104,0,2-0.896,2-2v-4c0-1.104-0.896-2-2-2c-1.105,0-2,0.896-2,2v4C57.999,17.104,58.895,18,59.999,18z"/>
		<path d="M83.999,34h-4c-1.105,0-2,0.896-2,2s0.895,2,2,2h4c1.104,0,2-0.896,2-2S85.104,34,83.999,34z"/>
		<path d="M74.142,23.857c0.512,0,1.023-0.195,1.414-0.586l2.828-2.828c0.781-0.781,0.781-2.047,0-2.828
			c-0.781-0.781-2.047-0.781-2.828,0l-2.828,2.828c-0.781,0.781-0.781,2.047,0,2.828C73.118,23.662,73.63,23.857,74.142,23.857z"/>
		<path d="M44.442,23.271c0.391,0.391,0.902,0.586,1.414,0.586s1.023-0.195,1.414-0.586c0.781-0.781,0.781-2.047,0-2.828
			l-2.828-2.828c-0.781-0.781-2.047-0.781-2.828,0c-0.781,0.781-0.781,2.047,0,2.828L44.442,23.271z"/>
		<path d="M46.48,52.698c-0.663,0.774-6.48,7.723-6.481,13.301c-0.001,2.063,0.712,4,2.006,5.455
			c1.032,1.161,2.911,2.545,5.996,2.546c5.249,0,7.997-4.024,7.998-8c0.001-5.579-5.818-12.527-6.481-13.302
			C48.758,51.812,47.24,51.812,46.48,52.698z M48.001,70l-0.002,2L48.001,70c-1.286,0-2.297-0.405-3.008-1.204
			c-0.632-0.711-0.994-1.729-0.994-2.796c0.001-2.607,2.233-6.302,4-8.747c1.768,2.445,4.001,6.14,4,8.746
			C51.998,67.845,50.951,70,48.001,70z"/>
		<path d="M72.555,42.187c0.945-1.915,1.444-4.021,1.444-6.187c0-7.72-6.28-14-14-14c-4.601,0-8.895,2.281-11.496,6.021
			C48.335,28.016,48.169,28,48,28c-7.664,0-14.219,5.012-16.312,12.184C31.112,40.079,30.507,40,30,40c-6.066,0-11,4.935-11,11
			s4.934,11,11,11h5.999c1.104,0,2-0.896,2-2s-0.896-2-2-2H30c-3.859,0-7-3.141-7-7s3.141-7,7-7c0.277,0,0.723,0.068,1.193,0.162V46
			c0,1.104,0.895,2,2,2s2-0.896,2-2v-3.219C36.266,36.528,41.629,32,48,32c6.372,0,11.736,4.53,12.807,10.786V46
			c0,1.104,0.896,2,2,2s2-0.896,2-2v-1.837C65.278,44.069,65.726,44,66,44c3.859,0,7,3.141,7,7s-3.141,7-7,7h-6.001
			c-1.105,0-2,0.896-2,2s0.895,2,2,2H66c6.065,0,11-4.935,11-11C77,47.392,75.246,44.194,72.555,42.187z M64.311,40.184
			c-1.608-5.511-5.854-9.735-11.21-11.401C54.939,27.03,57.397,26,59.999,26c5.514,0,10,4.486,10,10c0,1.548-0.36,3.05-1.036,4.417
			C68.019,40.152,67.027,40,66,40C65.492,40,64.888,40.079,64.311,40.184z"/>
	</g>
</g>
</svg>
